<?xml version="1.0" encoding="utf-8"?>
<!-- Generator: Adobe Illustrator 16.0.0, SVG Export Plug-In . SVG Version: 6.00 Build 0)  -->
<!DOCTYPE svg PUBLIC "-//W3C//DTD SVG 1.1//EN" "http://www.w3.org/Graphics/SVG/1.1/DTD/svg11.dtd">
<svg version="1.1" id="Layer_1" xmlns="http://www.w3.org/2000/svg" xmlns:xlink="http://www.w3.org/1999/xlink" x="0px" y="0px"
	 width="24px" height="24px" viewBox="0 0 24 24" enable-background="new 0 0 24 24" xml:space="preserve">
<path fill="none" stroke="#080A0B" stroke-width="1.5" d="M12.001,1c1.458,0,2.86,0.279,4.21,0.837
	c1.348,0.558,2.536,1.353,3.566,2.385c1.031,1.031,1.828,2.221,2.386,3.568C22.721,9.139,23,10.542,23,12
	c0,1.459-0.279,2.861-0.837,4.21s-1.354,2.537-2.386,3.567c-1.03,1.031-2.221,1.826-3.566,2.386C14.861,22.721,13.459,23,12.001,23
	c-1.459,0-2.862-0.279-4.21-0.837c-1.348-0.56-2.537-1.354-3.569-2.386c-1.031-1.03-1.826-2.221-2.385-3.567
	C1.279,14.861,1,13.459,1,12c0-1.458,0.279-2.861,0.837-4.209c0.559-1.347,1.354-2.537,2.385-3.568
	c1.032-1.032,2.221-1.827,3.569-2.385C9.139,1.279,10.542,1,12.001,1z"/>
<path fill="#080A0B" d="M14.557,8.629h0.926c1.018,0,1.535,0.408,1.535,1.144c0,0.768-0.502,1.16-1.475,1.16h-0.986V8.629z
	 M12.41,17.779h2.146v-4.764h0.203l2.522,4.764h2.335l-2.663-4.998c1.425-0.517,2.162-1.521,2.162-2.993
	c0-0.956-0.345-1.802-0.908-2.351c-0.753-0.737-1.757-0.909-3.183-0.909H12.41V17.779z M7.646,12.844
	c1.504,0,2.256,0.58,2.256,1.567c0,0.956-0.721,1.332-2.068,1.332H7.113v-2.899H7.646z M7.662,8.567
	c0.956,0,1.441,0.423,1.441,1.144c0,0.783-0.518,1.222-1.521,1.222h-0.47V8.567H7.662z M8.32,17.779
	c1.144,0,1.959-0.234,2.711-0.971c0.657-0.627,0.972-1.396,0.972-2.319c0-1.363-0.659-2.271-1.975-2.899
	c0.768-0.596,1.175-1.269,1.175-2.163c0-0.971-0.501-1.848-1.348-2.35C9.15,6.655,8.195,6.529,7.02,6.529H4.966v11.25H8.32z"/>
</svg>
