<?xml version="1.0" encoding="utf-8"?>
<!-- Generator: Adobe Illustrator 16.0.0, SVG Export Plug-In . SVG Version: 6.00 Build 0)  -->
<!DOCTYPE svg PUBLIC "-//W3C//DTD SVG 1.1//EN" "http://www.w3.org/Graphics/SVG/1.1/DTD/svg11.dtd">
<svg version="1.1" id="Layer_1" xmlns="http://www.w3.org/2000/svg" xmlns:xlink="http://www.w3.org/1999/xlink" x="0px" y="0px"
	 width="33.543px" height="33.542px" viewBox="0 0 33.543 33.542" enable-background="new 0 0 33.543 33.542" xml:space="preserve">
<path fill="#080A0B" d="M16.875,1c2.105,0,4.131,0.403,6.075,1.209S26.611,4.161,28.1,5.65c1.489,1.488,2.637,3.205,3.441,5.149
	c0.807,1.945,1.209,3.971,1.209,6.075c0,2.105-0.402,4.131-1.209,6.075c-0.805,1.945-1.952,3.662-3.441,5.15
	c-1.488,1.488-3.205,2.636-5.149,3.441s-3.97,1.208-6.075,1.208s-4.131-0.402-6.075-1.208c-1.945-0.806-3.662-1.953-5.15-3.441
	c-1.489-1.488-2.636-3.205-3.441-5.15C1.403,21.006,1,18.98,1,16.875c0-2.104,0.403-4.13,1.208-6.075
	C3.014,8.855,4.161,7.139,5.65,5.65c1.488-1.489,3.205-2.636,5.15-3.441C12.744,1.403,14.77,1,16.875,1z"/>
<path fill="none" stroke="#FFFFFF" d="M16.875,1c2.105,0,4.131,0.403,6.075,1.209S26.611,4.161,28.1,5.65
	c1.489,1.488,2.637,3.205,3.441,5.149c0.807,1.945,1.209,3.971,1.209,6.075c0,2.105-0.402,4.131-1.209,6.075
	c-0.805,1.945-1.952,3.662-3.441,5.15c-1.488,1.488-3.205,2.636-5.149,3.441s-3.97,1.208-6.075,1.208s-4.131-0.402-6.075-1.208
	c-1.945-0.806-3.662-1.953-5.15-3.441c-1.489-1.488-2.636-3.205-3.441-5.15C1.403,21.006,1,18.98,1,16.875
	c0-2.104,0.403-4.13,1.208-6.075C3.014,8.855,4.161,7.139,5.65,5.65c1.488-1.489,3.205-2.636,5.15-3.441
	C12.744,1.403,14.77,1,16.875,1z"/>
<path fill="#080A0B" d="M11.19,17.417v3.617h0.899c1.682,0,2.581-0.469,2.581-1.662c0-1.231-0.938-1.955-2.815-1.955H11.19z
	 M11.19,12.079v2.952h0.587c1.251,0,1.896-0.547,1.896-1.525c0-0.899-0.605-1.427-1.799-1.427H11.19z M8.512,23.576V9.537h2.562
	c1.467,0,2.659,0.156,3.539,0.684c1.056,0.626,1.682,1.721,1.682,2.934c0,1.114-0.508,1.955-1.466,2.698
	c1.642,0.782,2.463,1.916,2.463,3.617c0,1.154-0.391,2.112-1.212,2.895c-0.938,0.919-1.956,1.212-3.383,1.212H8.512z"/>
<path fill="none" stroke="#FFFFFF" d="M11.19,17.417v3.617h0.899c1.682,0,2.581-0.469,2.581-1.662c0-1.231-0.938-1.955-2.815-1.955
	H11.19z M11.19,12.079v2.952h0.587c1.251,0,1.896-0.547,1.896-1.525c0-0.899-0.605-1.427-1.799-1.427H11.19z M8.512,23.576V9.537
	h2.562c1.467,0,2.659,0.156,3.539,0.684c1.056,0.626,1.682,1.721,1.682,2.934c0,1.114-0.508,1.955-1.466,2.698
	c1.642,0.782,2.463,1.916,2.463,3.617c0,1.154-0.391,2.112-1.212,2.895c-0.938,0.919-1.956,1.212-3.383,1.212H8.512z"/>
<path fill="#080A0B" d="M20.361,15.031h1.232c1.213,0,1.838-0.488,1.838-1.447c0-0.919-0.646-1.427-1.916-1.427h-1.154V15.031z
	 M17.683,9.537h3.266c1.779,0,3.03,0.215,3.97,1.134c0.703,0.685,1.134,1.74,1.134,2.934c0,1.837-0.919,3.089-2.698,3.734
	l3.324,6.237h-2.914l-3.147-5.944h-0.255v5.944h-2.679V9.537z"/>
<path fill="none" stroke="#FFFFFF" d="M20.361,15.031h1.232c1.213,0,1.838-0.488,1.838-1.447c0-0.919-0.646-1.427-1.916-1.427
	h-1.154V15.031z M17.683,9.537h3.266c1.779,0,3.03,0.215,3.97,1.134c0.703,0.685,1.134,1.74,1.134,2.934
	c0,1.837-0.919,3.089-2.698,3.734l3.324,6.237h-2.914l-3.147-5.944h-0.255v5.944h-2.679V9.537z"/>
</svg>
