<?xml version="1.0" encoding="utf-8"?>
<!-- Generator: Adobe Illustrator 16.0.0, SVG Export Plug-In . SVG Version: 6.00 Build 0)  -->
<!DOCTYPE svg PUBLIC "-//W3C//DTD SVG 1.1//EN" "http://www.w3.org/Graphics/SVG/1.1/DTD/svg11.dtd">
<svg version="1.1" id="Layer_1" xmlns="http://www.w3.org/2000/svg" xmlns:xlink="http://www.w3.org/1999/xlink" x="0px" y="0px"
	 width="26.677px" height="26.947px" viewBox="0 0 26.677 26.947" enable-background="new 0 0 26.677 26.947" xml:space="preserve">
<path fill="#080A0B" d="M8.982,22.89c0.56,0,1.038,0.198,1.434,0.594s0.594,0.874,0.594,1.434s-0.198,1.038-0.594,1.434
	s-0.874,0.594-1.434,0.594s-1.038-0.198-1.434-0.594s-0.594-0.874-0.594-1.434s0.198-1.038,0.594-1.434S8.422,22.89,8.982,22.89z"/>
<path fill="#080A0B" d="M20.862,22.601c0.56,0,1.038,0.198,1.435,0.594c0.396,0.396,0.594,0.874,0.594,1.434
	s-0.198,1.038-0.594,1.434c-0.396,0.396-0.875,0.594-1.435,0.594s-1.038-0.198-1.435-0.594c-0.396-0.396-0.594-0.874-0.594-1.434
	s0.198-1.038,0.594-1.434C19.824,22.798,20.303,22.601,20.862,22.601z"/>
<polygon fill="#080A0B" points="5.115,6.375 3.546,0.687 0,0 4.381,16.516 24.318,16.516 26.677,6.375 "/>
<line fill="none" stroke="#080A0B" stroke-width="1.3" stroke-miterlimit="10" x1="4.926" y1="19.414" x2="24.339" y2="19.414"/>
</svg>
