<?xml version="1.0" encoding="utf-8"?>
<!-- Generator: Adobe Illustrator 16.0.0, SVG Export Plug-In . SVG Version: 6.00 Build 0)  -->
<!DOCTYPE svg PUBLIC "-//W3C//DTD SVG 1.1//EN" "http://www.w3.org/Graphics/SVG/1.1/DTD/svg11.dtd">
<svg version="1.1" id="Layer_1" xmlns="http://www.w3.org/2000/svg" xmlns:xlink="http://www.w3.org/1999/xlink" x="0px" y="0px"
	 width="24px" height="24px" viewBox="0 0 24 24" enable-background="new 0 0 24 24" xml:space="preserve">
<path fill="none" stroke="#080A0B" stroke-width="1.5" d="M21.241,4.051c-2.345-2.344-6.068-2.344-8.413,0l-0.827,0.828
	l-0.828-0.828c-2.345-2.344-6.069-2.344-8.414,0c-2.345,2.345-2.345,6.069,0,8.415l9.242,9.241l9.24-9.241
	C23.587,10.12,23.587,6.396,21.241,4.051"/>
<path fill="#080A0B" d="M12.222,8.521c0.473,0,0.809,0.315,0.809,0.779c0,0.463-0.307,0.81-0.779,0.81
	c-0.464,0-0.789-0.355-0.789-0.81C11.463,8.856,11.769,8.521,12.222,8.521z M12.281,11.352c0.592,0,1.113,0.424,1.113,1.046
	c0,0.611-0.463,0.985-1.133,0.985c-0.72,0-1.134-0.482-1.134-1.015C11.128,11.795,11.661,11.352,12.281,11.352z M10.141,9.191
	c0,0.572,0.217,1.036,0.641,1.46c-0.66,0.493-0.977,1.065-0.977,1.835c0,0.958,0.523,1.737,1.362,2.034
	c0.414,0.146,0.68,0.156,1.114,0.156c1.607,0,2.438-0.976,2.438-2.19c0-0.75-0.365-1.421-1.007-1.835
	c0.425-0.454,0.681-0.849,0.681-1.44c0-1.086-0.828-1.983-2.121-1.983C10.98,7.228,10.141,8.057,10.141,9.191z"/>
</svg>
