<?xml version="1.0" encoding="utf-8"?>
<!-- Generator: Adobe Illustrator 16.0.0, SVG Export Plug-In . SVG Version: 6.00 Build 0)  -->
<!DOCTYPE svg PUBLIC "-//W3C//DTD SVG 1.1//EN" "http://www.w3.org/Graphics/SVG/1.1/DTD/svg11.dtd">
<svg version="1.1" id="Layer_1" xmlns="http://www.w3.org/2000/svg" xmlns:xlink="http://www.w3.org/1999/xlink" x="0px" y="0px"
	 width="24px" height="24px" viewBox="0 0 24 24" enable-background="new 0 0 24 24" xml:space="preserve">
<path fill="#010101" d="M9.443,6.129h5.069c0-0.583,0.002-1.148-0.002-1.714c-0.001-0.112-0.021-0.225-0.039-0.337
	c-0.18-1.181-1.136-2.045-2.34-2.114c-1.173-0.067-2.294,0.688-2.525,1.837C9.455,4.55,9.491,5.337,9.443,6.129z M16.177,7.833
	v2.485h-1.668v-2.48H9.482v2.476H7.805v-2.48H6.062c-0.499,4.739-0.996,9.467-1.494,14.2h14.866c-0.5-4.741-0.996-9.466-1.494-14.2
	L16.177,7.833L16.177,7.833z M21.303,23.706H2.697c0.615-5.849,1.229-11.682,1.847-17.542h3.272c0-0.118-0.002-0.21,0-0.301
	C7.834,5.167,7.795,4.464,7.88,3.776c0.213-1.707,1.73-3.191,3.44-3.436c2.429-0.347,4.552,1.262,4.845,3.687
	c0.045,0.379,0.017,0.767,0.019,1.149c0.002,0.313,0,0.625,0,0.964h3.27C20.07,12.006,20.688,17.848,21.303,23.706z"/>
<path fill="none" stroke="#080A0B" stroke-width="0.25" d="M9.443,6.129h5.069c0-0.583,0.002-1.148-0.002-1.714
	c-0.001-0.112-0.021-0.225-0.039-0.337c-0.18-1.181-1.136-2.045-2.34-2.114c-1.173-0.067-2.294,0.688-2.525,1.837
	C9.455,4.55,9.491,5.337,9.443,6.129z M16.177,7.833v2.485h-1.668v-2.48H9.482v2.476H7.805v-2.48H6.062
	c-0.499,4.739-0.996,9.467-1.494,14.2h14.866c-0.5-4.741-0.996-9.466-1.494-14.2L16.177,7.833L16.177,7.833z M21.303,23.706H2.697
	c0.615-5.849,1.229-11.682,1.847-17.542h3.272c0-0.118-0.002-0.21,0-0.301C7.834,5.167,7.795,4.464,7.88,3.776
	c0.213-1.707,1.73-3.191,3.44-3.436c2.429-0.347,4.552,1.262,4.845,3.687c0.045,0.379,0.017,0.767,0.019,1.149
	c0.002,0.313,0,0.625,0,0.964h3.27C20.07,12.006,20.688,17.848,21.303,23.706z"/>
</svg>
