<?xml version="1.0" encoding="utf-8"?>
<!-- Generator: Adobe Illustrator 16.0.0, SVG Export Plug-In . SVG Version: 6.00 Build 0)  -->
<!DOCTYPE svg PUBLIC "-//W3C//DTD SVG 1.1//EN" "http://www.w3.org/Graphics/SVG/1.1/DTD/svg11.dtd">
<svg version="1.1" id="Layer_1" xmlns="http://www.w3.org/2000/svg" xmlns:xlink="http://www.w3.org/1999/xlink" x="0px" y="0px"
	 width="24px" height="24px" viewBox="0 0 24 24" enable-background="new 0 0 24 24" xml:space="preserve">
<path fill="#080A0B" d="M12.727,10.256c3.313-3.308,4.969-5.544,4.969-6.703c0-0.666-0.496-1-1.482-1c-1,0-2.376,0.37-4.127,1.115
	C10.252,4.444,8.704,5.342,7.44,6.36c-1.468,1.192-2.203,2.3-2.203,3.327c0,0.339,0.167,0.733,0.5,1.183
	c0.334,0.448,1.056,0.672,2.164,0.672c0.803,0,1.549-0.063,2.243-0.193c-2.764,2.699-4.27,4.053-4.514,4.065
	c0.04-0.111,0.282-0.4,0.71-0.88c0.394-0.442,0.593-0.688,0.593-0.738c0-0.098-0.045-0.146-0.134-0.146
	c-0.181,0-0.581,0.343-1.202,1.029c-0.621,0.686-0.93,1.144-0.93,1.367c0,0.36,0.201,0.54,0.605,0.54
	c0.269,0,0.594-0.128,0.971-0.385c1.225-0.843,3.148-2.587,5.772-5.239c1.604-0.391,2.406-0.676,2.406-0.855
	c0-0.11-0.077-0.164-0.237-0.164c-0.129,0-0.365,0.045-0.713,0.135L12.727,10.256z M18.928,13.251
	c-0.625-0.587-1.263-1.013-1.916-1.281c-0.656-0.267-1.354-0.401-2.1-0.401c-0.918,0-1.738,0.202-2.465,0.602
	c-0.728,0.404-1.3,0.963-1.715,1.675c-0.417,0.711-0.626,1.48-0.626,2.311c0,1.111,0.364,2.093,1.089,2.941
	c0.945,1.1,2.227,1.649,3.845,1.649c1.333,0,2.397-0.397,3.192-1.188c0.799-0.798,1.199-1.867,1.207-3.216h-3.772v0.853h2.789
	c-0.116,0.804-0.485,1.461-1.108,1.966c-0.623,0.507-1.387,0.759-2.283,0.759c-0.746,0-1.426-0.17-2.051-0.508
	c-0.624-0.339-1.113-0.807-1.466-1.398c-0.353-0.591-0.528-1.218-0.528-1.873c0-0.644,0.171-1.254,0.513-1.83
	c0.342-0.576,0.824-1.033,1.443-1.371c0.623-0.336,1.279-0.504,1.967-0.504c0.554,0,1.119,0.125,1.703,0.374
	c0.58,0.244,1.117,0.607,1.604,1.086L18.928,13.251z M3.671,1.458h16.697V22.54H3.671V1.458z"/>
<path fill="#080A0B" d="M16.943,3.286c0,0.423-0.51,1.267-1.537,2.534c-0.699,0.853-1.42,1.656-2.156,2.407
	c-1.423,1.457-2.181,2.206-2.27,2.243c-0.315,0.163-1.213,0.244-2.696,0.244c-1.599,0-2.397-0.282-2.397-0.848
	c0-0.566,0.784-1.47,2.348-2.712c1.566-1.243,3.228-2.248,4.986-3.01c1.737-0.758,2.854-1.138,3.35-1.138
	C16.82,3.006,16.943,3.1,16.943,3.286z"/>
<path fill="#080A0B" d="M2.561,23.503h18.878V0.493H2.561V23.503z M21.686,23.75H2.315V0.25h19.369v23.5H21.686z"/>
</svg>
