<?xml version="1.0" encoding="utf-8"?>
<!-- Generator: Adobe Illustrator 16.0.0, SVG Export Plug-In . SVG Version: 6.00 Build 0)  -->
<!DOCTYPE svg PUBLIC "-//W3C//DTD SVG 1.1//EN" "http://www.w3.org/Graphics/SVG/1.1/DTD/svg11.dtd">
<svg version="1.1" id="Layer_1" xmlns="http://www.w3.org/2000/svg" xmlns:xlink="http://www.w3.org/1999/xlink" x="0px" y="0px"
	 width="7.705px" height="12.574px" viewBox="0 0 7.705 12.574" enable-background="new 0 0 7.705 12.574" xml:space="preserve">
<rect x="-11.123" y="-3.766" display="none" fill="#FFFFFF" width="28.157" height="4"/>
<rect x="-11.123" y="4.39" display="none" fill="#FFFFFF" width="28.157" height="4"/>
<rect x="-11.123" y="12.546" display="none" fill="#FFFFFF" width="28.157" height="4"/>
<path fill="#FFFFFF" d="M5.601,12.574c0.23,0.234,0.544,0.365,0.871,0.365c0.328,0,0.643-0.131,0.873-0.365
	c0.477-0.482,0.477-1.26,0-1.744L2.987,6.473l4.357-4.368c0.481-0.481,0.481-1.262,0-1.744c-0.482-0.481-1.263-0.481-1.744,0
	L0.358,5.603c-0.478,0.483-0.478,1.261,0,1.744L5.601,12.574z"/>
</svg>
