<?xml version="1.0" encoding="utf-8"?>
<!-- Generator: Adobe Illustrator 16.0.0, SVG Export Plug-In . SVG Version: 6.00 Build 0)  -->
<!DOCTYPE svg PUBLIC "-//W3C//DTD SVG 1.1//EN" "http://www.w3.org/Graphics/SVG/1.1/DTD/svg11.dtd">
<svg version="1.1" id="Layer_1" xmlns="http://www.w3.org/2000/svg" xmlns:xlink="http://www.w3.org/1999/xlink" x="0px" y="0px"
	 width="28.999px" height="28.999px" viewBox="0 0 28.999 28.999" enable-background="new 0 0 28.999 28.999" xml:space="preserve">
<rect x="-0.194" y="5.096" display="none" fill="#FFFFFF" width="28.157" height="4"/>
<rect x="-0.194" y="13.252" display="none" fill="#FFFFFF" width="28.157" height="4"/>
<rect x="-0.194" y="21.409" display="none" fill="#FFFFFF" width="28.157" height="4"/>
<path display="none" fill="#FFFFFF" d="M16.53,21.436c0.23,0.234,0.544,0.365,0.871,0.365c0.328,0,0.643-0.131,0.873-0.365
	c0.477-0.482,0.477-1.26,0-1.744l-4.357-4.356l4.357-4.368c0.481-0.481,0.481-1.262,0-1.744c-0.482-0.481-1.263-0.481-1.744,0
	l-5.242,5.242c-0.478,0.483-0.478,1.261,0,1.744L16.53,21.436z"/>
<path fill="none" stroke="#FFFFFF" stroke-width="1.3" d="M9.946,24.208c0.56,0,1.038,0.198,1.435,0.595
	c0.396,0.396,0.594,0.873,0.594,1.434s-0.198,1.038-0.594,1.434c-0.396,0.396-0.875,0.595-1.435,0.595
	c-0.561,0-1.038-0.198-1.435-0.595c-0.396-0.396-0.594-0.873-0.594-1.434s0.198-1.038,0.594-1.434
	C8.908,24.407,9.385,24.208,9.946,24.208z"/>
<path fill="none" stroke="#FFFFFF" stroke-width="1.3" d="M21.826,23.918c0.56,0,1.038,0.198,1.435,0.595
	c0.396,0.396,0.594,0.874,0.594,1.435c0,0.56-0.198,1.037-0.594,1.434c-0.396,0.396-0.875,0.594-1.435,0.594
	c-0.561,0-1.038-0.197-1.435-0.594c-0.396-0.396-0.594-0.874-0.594-1.434c0-0.561,0.198-1.039,0.594-1.435
	C20.788,24.117,21.265,23.918,21.826,23.918z"/>
<polygon fill="none" stroke="#FFFFFF" stroke-width="1.3" points="6.078,7.693 4.509,2.005 0.963,1.318 5.345,17.834 25.281,17.834 
	27.64,7.693 "/>
<line fill="none" stroke="#FFFFFF" stroke-width="1.3" stroke-miterlimit="10" x1="5.889" y1="20.732" x2="25.302" y2="20.732"/>
</svg>
