<?xml version="1.0" encoding="utf-8"?>
<!-- Generator: Adobe Illustrator 16.0.0, SVG Export Plug-In . SVG Version: 6.00 Build 0)  -->
<!DOCTYPE svg PUBLIC "-//W3C//DTD SVG 1.1//EN" "http://www.w3.org/Graphics/SVG/1.1/DTD/svg11.dtd">
<svg version="1.1" id="Layer_1" xmlns="http://www.w3.org/2000/svg" xmlns:xlink="http://www.w3.org/1999/xlink" x="0px" y="0px"
	 width="31.174px" height="31.174px" viewBox="0 0 31.174 31.174" enable-background="new 0 0 31.174 31.174" xml:space="preserve">
<polygon fill="#080A0B" points="13.645,18.507 18.715,15.587 13.645,12.667 "/>
<path fill="#080A0B" d="M25.326,15.603c0,0,0,3.161-0.4,4.686c-0.225,0.835-0.883,1.492-1.717,1.717
	c-1.525,0.401-7.622,0.401-7.622,0.401s-6.081,0-7.622-0.417c-0.834-0.225-1.492-0.883-1.717-1.717c-0.4-1.509-0.4-4.686-0.4-4.686
	s0-3.161,0.4-4.686c0.225-0.834,0.898-1.508,1.717-1.732c1.525-0.401,7.622-0.401,7.622-0.401s6.097,0,7.622,0.417
	c0.834,0.225,1.492,0.883,1.717,1.717C25.343,12.426,25.326,15.603,25.326,15.603z M15.587,0C6.98,0,0,6.979,0,15.587
	s6.98,15.587,15.587,15.587s15.587-6.979,15.587-15.587S24.193,0,15.587,0z"/>
</svg>
